<svg width="104" height="80" fill="none" xmlns="http://www.w3.org/2000/svg"><path d="M33.76 31.44c0 11.136.032 20.24.08 20.24.032 0 7.904-1.776 17.472-3.936 9.568-2.16 17.6-3.968 17.856-4.016l.432-.096V11.2H33.76v20.24Zm19.984-3.968c2.48 5.376 4.496 9.824 4.496 9.872 0 .048-.592.096-1.328.096h-1.328l-1.088-2.4-1.088-2.4H44.56l-1.04 2.336c-.576 1.28-1.12 2.368-1.216 2.416-.096.032-.72.048-1.392.016l-1.216-.048 4.32-9.36c2.368-5.152 4.464-9.68 4.64-10.08.24-.544.352-.656.464-.48.064.128 2.16 4.64 4.624 10.032Zm3.44-9.952c.608.128 1.424.384 1.824.576.752.368 1.952 1.456 1.952 1.76 0 .16-1.36.144-5.152-.112-.976-.064-1.408-.032-1.408.096 0 .112-.512.16-1.616.128l-1.6-.048-.56-1.248c-.304-.688-.544-1.28-.544-1.312 0-.208 6.08-.064 7.104.16Zm-2.816 4.592.048 1.408h-1.568l-.576-1.248c-.336-.688-.592-1.328-.592-1.44 0-.16.352-.192 1.328-.16l1.312.048.048 1.392Zm7.056-1.104c.144.352.224 1.344.192 2.144-.016.352-.08.368-1.216.368h-1.2v-.688c-.016-.368-.112-.96-.24-1.312-.128-.352-.24-.688-.24-.768 0-.064.576-.112 1.28-.112 1.2 0 1.296.032 1.424.368ZM54.4 25.2c0 1.184-.128 1.12 1.744.88 1.408-.192 2.448-.72 2.736-1.44.192-.48.208-.48 1.376-.48.8 0 1.184.064 1.184.192 0 .352-.8 1.552-1.312 1.952-.368.288-.448.416-.256.416.144 0 .32.08.368.16.064.112-.88.16-2.88.128l-2.976-.048-.56-1.248c-.304-.688-.544-1.312-.544-1.392 0-.096.256-.16.56-.16h.56v1.04Zm7.824 3.072c.48.592 1.136 1.808 1.136 2.128 0 .096-.512.16-1.264.16h-1.264l-.352-.544c-.624-1.04-1.856-1.536-4.08-1.68-1.2-.08-1.44-.144-1.488-.384-.048-.256.192-.272 3.392-.272h3.44l.48.592Zm1.296 3.68c0 .432-.08 1.04-.176 1.36l-.16.608h-2.976l.368-.752c.208-.4.384-1.024.384-1.36V31.2h2.56v.752Zm-.96 3.072c-.368.688-2 1.76-3.072 2.016-.416.112-.464.064-.928-.96-.256-.592-.48-1.088-.48-1.12 0-.144.736-.208 2.608-.224 1.968-.016 2.032 0 1.872.288Z" fill="#fff"/><path d="M47.392 26.272c-.8 1.872-1.504 3.536-1.568 3.68-.096.272.128.288 3.216.288 1.824 0 3.28-.064 3.248-.128-.592-1.456-3.248-7.232-3.328-7.232-.048 0-.752 1.536-1.568 3.392ZM14 62.912c-1.488 3.088-2.736 5.664-2.768 5.744-.032.08.352.144.848.144h.912l.656-1.44.656-1.44h5.056l.72 1.44.72 1.44h.8c.544 0 .8-.064.8-.208-.016-.32-5.36-11.2-5.52-11.248-.096-.032-1.376 2.48-2.88 5.568Zm4.72 1.664c0 .032-.832.064-1.856.064-1.696 0-1.856-.016-1.744-.288.048-.144.464-1.072.912-2.064l.816-1.792.944 2.016c.512 1.104.928 2.032.928 2.064ZM26.384 57.52c-1.152.416-1.856.864-2.592 1.664-1.168 1.248-1.472 2.032-1.472 3.792 0 1.344.048 1.536.56 2.544.672 1.312 1.744 2.272 3.152 2.8 1.2.448 3.12.48 4.368.064l.88-.304.048-.912.048-.912-.992.512c-1.92.992-4.112.576-5.488-1.024-2.416-2.832-.368-7.072 3.456-7.088.88 0 1.232.08 2.032.496.816.432.976.464.976.24 0-.144.048-.528.096-.848l.096-.592-.896-.336c-1.056-.4-3.328-.448-4.272-.096ZM36.848 57.584c-2.464.848-3.92 2.88-3.936 5.456 0 .976.08 1.376.432 2.176 1.312 2.928 4.944 4.272 8.064 3.024l.672-.272v-.864c0-.48-.048-.864-.096-.864s-.288.144-.528.304c-.752.544-2.032.864-2.928.768-2.352-.288-4.016-2.096-4.016-4.352 0-1.184.304-1.92 1.168-2.864.912-.992 1.904-1.424 3.2-1.44 1.008 0 1.248.08 3.088.992.064.032.112-.352.08-.864L42 57.856l-.8-.272c-1.088-.384-3.232-.384-4.352 0ZM43.84 63.04v5.76h6.4v-1.6h-4.8v-4h4.64v-1.44h-4.64v-3.04h4.8v-1.44h-6.4v5.76ZM52.64 63.04v5.76h5.12v-1.6h-3.52v-9.92h-1.6v5.76ZM59.36 58.064v.816h.784c.432 0 .816-.064.848-.16.032-.096.368-.096 1.008 0 1.168.192 2.8.208 2.8.032 0-.208-.656-.768-1.28-1.088-.416-.208-1.024-.304-2.352-.352l-1.808-.064v.816ZM67.136 58.08l.432.8h.944c.512 0 .928-.032.928-.08 0-.032-.192-.4-.432-.8l-.448-.72h-1.856l.432.8ZM73.552 58c-.24.4-.432.768-.432.8 0 .048.416.08.928.08h.912l.448-.8.448-.8H74l-.448.72ZM77.12 57.984v.688l1.76.08c.976.048 2.56.048 3.52 0l1.76-.08V57.28h-7.04v.704ZM85.6 58.096v.832l1.232-.112a55.993 55.993 0 0 1 3.2-.096H92v-1.44h-6.4v.816ZM59.36 60v.8h1.6v-1.6h-1.6v.8ZM63.44 59.472c.048.16.144.528.192.8.08.496.128.528.8.528h.704l-.048-.768-.048-.752-.864-.048c-.768-.048-.848-.016-.736.24ZM68.272 60l.448.8h1.856l-.432-.8-.432-.8h-1.888l.448.8ZM72.416 59.936c-.224.416-.416.768-.416.8 0 .032.416.064.928.064h.912l.448-.8.448-.8h-1.904l-.416.736ZM79.84 60v.8h1.6v-1.6h-1.6v.8ZM85.6 60v.8h1.6v-1.6h-1.6v.8ZM59.36 62v.88h2.592c1.968 0 2.544-.048 2.4-.192-.128-.128-.08-.288.208-.64.608-.704.528-.928-.32-.928-.56 0-.752.064-.88.336-.224.416-1.088.784-1.84.784-.528 0-.56-.032-.56-.56v-.56h-1.6V62ZM69.424 61.952l.48.848h2.752l.48-.848.496-.832h-.944c-.832 0-.96.048-1.184.4l-.24.416-.224-.416c-.192-.352-.304-.4-1.168-.4h-.944l.496.832ZM79.84 62v.88h1.6v-1.76h-1.6V62ZM85.6 62v.88h6.24v-1.12h-2.32c-2.208 0-2.32-.016-2.32-.32 0-.272-.112-.32-.8-.32h-.8V62ZM59.36 63.92v.88h1.6v-1.28h.768c1.088 0 1.936.288 2.464.816.384.368.608.464 1.2.464.704 0 .72-.016.608-.448-.048-.24-.288-.624-.528-.88l-.416-.432H59.36v.88ZM70.304 63.392c.048.208.096.608.096.88 0 .528 0 .528.784.528.752 0 .784-.016.864-.528a9.22 9.22 0 0 1 .192-.88c.112-.336.08-.352-.96-.352s-1.072.016-.976.352ZM79.84 63.92v.88h1.6v-1.76h-1.6v.88ZM85.6 63.92v.88h1.6v-1.76h-1.6v.88ZM59.36 65.92v.8h1.6v-1.6h-1.6v.8ZM64.64 65.44c0 .192-.112.544-.24.8l-.256.48h.96c1.024 0 1.136-.112 1.136-1.168 0-.416-.032-.432-.8-.432-.704 0-.8.048-.8.32ZM70.4 65.92v.8H72v-1.6h-1.6v.8ZM79.84 65.92v.8h1.6v-1.6h-1.6v.8ZM85.6 65.92v.8h1.6v-1.6h-1.6v.8ZM59.36 67.936v.912l2.048-.096c1.12-.048 2.304-.176 2.624-.288.64-.208 1.728-1.024 1.728-1.296 0-.16-1.856-.112-3.872.128-.64.064-.928.048-.928-.08 0-.112-.32-.176-.8-.176h-.8v.896ZM70.4 67.92v.88H72v-1.76h-1.6v.88ZM79.84 67.92v.88h1.6v-1.76h-1.6v.88ZM85.6 67.904v.896H92v-1.6h-1.968c-1.088 0-2.528-.048-3.2-.096l-1.232-.112v.912Z" fill="#fff"/></svg>