<svg width="170" height="27" fill="none" xmlns="http://www.w3.org/2000/svg"><path d="M0 11.642C0 22.61.03 23.285.528 23.08c7.392-2.881 16.515-5.116 25.139-6.145 3.226-.382 13.024-1.058 15.781-1.058h.792V10.378l3.021-.911c6.19-1.911 12.614-3.087 23.379-4.322 8.184-.94 8.507-.97 8.507-1.382 0-.588-16.134.324-24.934 1.411C38.925 6.791 25.58 9.937 15.9 13.73c-1.907.735-4.283 1.646-5.339 2.058l-1.907.735.704-.765c.382-.411.822-.676.998-.558.176.088.205.03.088-.147-.528-.853 10.032-6.674 16.309-8.997 3.52-1.293 8.859-2.734 12.555-3.38l2.786-.5.088-1.088L42.27 0H0v11.642Z" fill="#fff"/><path d="M31.093 6.909c0 .088.059.147.147.147s.147-.059.147-.147-.06-.147-.147-.147c-.088 0-.147.059-.147.147ZM56.35 15.582c-1.38.323-2.113 1.176-2.289 2.675-.176 1.676.587 2.705 2.728 3.646 1.174.53 1.584.853 1.584 1.294 0 1.117-1.76 1.47-3.608.764-.47-.206-.528-.088-.44.911.088 1.088.147 1.147 1.379 1.353 2.61.44 4.84-.676 5.192-2.587.264-1.47-.381-2.5-2.2-3.41-2.523-1.294-2.757-1.588-1.877-2.441.38-.382.792-.47 1.877-.323 1.35.176 1.379.176 1.496-.706.088-.5.059-.94-.03-1-.469-.264-2.933-.382-3.813-.176ZM168.373 20.727c0 5.233.03 5.439.587 5.439.557 0 .587-.206.587-5.439s-.03-5.439-.587-5.439c-.557 0-.587.206-.587 5.439ZM45.965 15.788c-.088.147-.968 2.352-1.965 4.939-.997 2.587-1.877 4.88-1.965 5.057-.118.264.234.382 1.144.382 1.29 0 1.32-.03 1.672-1.176l.352-1.176h3.989l.47 1.176c.41 1.117.527 1.176 1.642 1.176.675 0 1.203-.118 1.203-.265 0-.147-.88-2.528-1.936-5.292l-1.966-5.027h-1.26c-.676 0-1.32.088-1.38.206Zm2.26 5.292c.204.617.116.676-.969.676-.675 0-1.203-.059-1.203-.118 0-.058.176-.558.411-1.087.205-.559.47-1.265.616-1.588.205-.617.381-.294 1.144 2.117ZM62.187 16.611v1.029h2.933v8.526h2.347V17.64H70.4v-2.058H62.187v1.029ZM72.16 20.845v5.321h2.347v-2.205c0-1.352.117-2.205.322-2.205.822 0 1.438.735 2.054 2.499l.674 1.911h1.262c.704 0 1.26-.118 1.26-.265 0-.147-.44-1.323-.967-2.616l-.997-2.323.704-.617c.997-.882.968-2.94-.06-3.881-.674-.647-1.084-.735-3.666-.823l-2.933-.118v5.322Zm4.635-2.852c.82.823-.03 1.999-1.438 1.999-.792 0-.85-.059-.85-1.176 0-1.147.029-1.176.968-1.176.528 0 1.114.147 1.32.353ZM83.248 20.639c-1.115 2.793-1.995 5.204-1.995 5.321 0 .147.558.206 1.232.147 1.086-.088 1.232-.176 1.555-1.117l.352-1.029 2.053-.088 2.054-.088.352 1.205c.322 1.147.381 1.176 1.642 1.176.734 0 1.32-.088 1.291-.235 0-.118-.88-2.47-1.965-5.204l-1.966-4.998-1.32-.088-1.32-.088-1.965 5.086Zm3.96-.294.47 1.411h-1.174c-.616 0-1.144-.088-1.144-.176 0-.559 1.056-3 1.203-2.823.088.118.381.823.645 1.588ZM95.627 16.317c0 .53.146.735.586.735.44 0 .587-.206.587-.735 0-.53-.147-.735-.587-.735-.44 0-.586.206-.586.735ZM142.56 16.317c0 .53.147.735.587.735.44 0 .586-.206.586-.735 0-.53-.146-.735-.586-.735-.44 0-.587.206-.587.735ZM107.272 16.964c-.117.088-.205.558-.205 1.029 0 .676-.118.823-.734.823-.469 0-.733.176-.733.441s.264.441.733.441c.734 0 .734.03.734 2.47 0 3.41.264 3.998 1.76 3.998.968 0 1.173-.088 1.173-.588 0-.382-.147-.53-.44-.412-.968.383-1.32-.44-1.32-2.998v-2.47h.88c.587 0 .88-.147.88-.441 0-.294-.293-.441-.88-.441-.821 0-.88-.088-.88-1.029 0-.97-.469-1.352-.968-.823ZM138.659 16.964c-.118.088-.206.558-.206 1.029 0 .617-.146.823-.586.823-.323 0-.587.206-.587.441 0 .235.264.441.587.441.528 0 .586.206.586 2.47 0 1.381.118 2.822.294 3.234.234.676.44.764 1.584.764 1.144 0 1.29-.059 1.144-.559-.088-.352-.323-.5-.558-.411-.938.353-1.29-.5-1.29-3.028v-2.47h.88c.586 0 .88-.147.88-.441 0-.294-.294-.441-.88-.441-.822 0-.88-.088-.88-1.029 0-.97-.47-1.352-.968-.823ZM100.379 18.992c-.352.236-.646.294-.646.147 0-.176-.205-.323-.44-.323-.381 0-.44.617-.44 3.675 0 3.47.03 3.675.587 3.675.528 0 .587-.206.587-2.587 0-2.999.41-3.881 1.76-3.881 1.349 0 1.76.882 1.76 3.88 0 2.382.058 2.588.586 2.588.528 0 .587-.206.587-2.617 0-2.851-.352-4.292-1.173-4.733-.822-.441-2.435-.353-3.168.176ZM112.317 18.963c-.704.382-1.114 1.088-1.584 2.705-.293 1.029.147 2.705.939 3.645.645.735.909.853 2.288.853 1.965 0 2.493-.206 2.493-.94 0-.442-.117-.53-.498-.383-1.496.588-2.376.5-3.139-.235-1.379-1.382-1.056-1.676 1.613-1.676h2.406l-.147-1.529c-.117-1.176-.323-1.676-.939-2.205-.909-.764-2.288-.882-3.432-.235Zm2.787 1.382c.821 1.176.616 1.411-1.291 1.411-1.906 0-2.112-.235-1.29-1.411a1.555 1.555 0 0 1 1.29-.647c.528 0 .998.235 1.291.647ZM119.885 19.022c-.322.323-.498.382-.498.147 0-.206-.264-.353-.587-.353-.557 0-.587.206-.587 3.675 0 3.41.03 3.675.558 3.675.498 0 .557-.265.674-2.617.088-2.763.587-3.851 1.76-3.851.323 0 .528-.206.528-.588 0-.735-1.144-.794-1.848-.088ZM125.019 18.787c-.206.117-.704.176-1.115.088l-.704-.118v3.705c0 3.498.029 3.704.587 3.704.528 0 .586-.206.586-2.587 0-3.117.382-3.881 1.936-3.881 1.32 0 1.584.676 1.584 3.998 0 2.323.03 2.47.616 2.47.587 0 .616-.118.499-3.263-.088-3-.147-3.293-.792-3.822-.704-.588-2.493-.735-3.197-.294ZM131.795 18.816c-.382.147-.675.47-.675.706 0 .352.293.411 1.467.264 1.584-.176 2.346.177 2.346 1.117 0 .412-.205.559-.792.559-1.378 0-2.992.588-3.314 1.176-.47.882-.352 2.499.234 3.028.646.588 2.992.676 3.52.147.264-.264.352-.264.352 0 0 .206.264.353.587.353.557 0 .587-.206.587-3.087 0-2.91-.059-3.146-.734-3.822-.762-.794-2.288-.97-3.578-.441Zm3.138 4.557c0 1.44-1.936 2.499-2.874 1.558-.939-.94.176-2.293 1.906-2.293.851 0 .968.088.968.735ZM146.784 19.08c-2.083 1.265-2.112 5.175-.059 6.616.968.676 3.198.617 4.136-.118 1.995-1.558 1.643-5.704-.557-6.703-1.085-.5-2.493-.412-3.52.206Zm3.403 1.265c.88.97.821 3.263-.147 4.204-.851.882-1.584.94-2.581.147-1.262-1-1.291-3.646 0-4.645.762-.559 2.053-.412 2.728.294ZM155.232 18.992c-.352.236-.645.294-.645.147 0-.176-.264-.323-.587-.323-.557 0-.587.206-.587 3.675 0 3.41.03 3.675.558 3.675.469 0 .557-.294.674-2.646.147-2.91.587-3.822 1.995-3.822 1.261 0 1.467.47 1.467 3.587 0 2.675.029 2.881.586 2.881.558 0 .587-.206.587-3.205 0-3.116-.029-3.234-.763-3.822-.938-.735-2.376-.793-3.285-.147ZM162.155 18.728c-.294.059-.528.382-.528.676 0 .5.176.53 1.496.382 1.261-.147 1.584-.088 1.906.353.675.94.499 1.323-.616 1.323-2.933 0-4.752 2.44-3.08 4.116.646.647 2.582.794 3.55.294.381-.206.557-.206.557 0 0 .147.264.294.616.294.587 0 .616-.118.499-3.263-.088-3-.147-3.293-.792-3.822-.646-.53-2.318-.706-3.608-.353Zm3.285 4.498c0 .706-1.232 2.058-1.877 2.058-.91 0-1.35-.382-1.35-1.205 0-1 .616-1.412 2.142-1.441.909 0 1.085.088 1.085.588ZM95.627 22.491c0 3.47.029 3.675.586 3.675.558 0 .587-.206.587-3.675 0-3.47-.03-3.675-.587-3.675-.557 0-.586.206-.586 3.675ZM142.56 22.491c0 3.47.029 3.675.587 3.675.557 0 .586-.206.586-3.675 0-3.47-.029-3.675-.586-3.675-.558 0-.587.206-.587 3.675Z" fill="#fff"/></svg>