<svg width="100" height="100" fill="none" xmlns="http://www.w3.org/2000/svg"><path d="m94.175 0-8.033 89.99L50.034 100l-36.01-9.996L6 0h88.175Z" fill="#264DE4"/><path d="m79.265 84.26 6.864-76.9H50.087v84.989l29.178-8.09Z" fill="#2965F1"/><path d="m24.396 40.74.99 11.04h24.701V40.74H24.396ZM50.087 18.398H22.409l1.003 11.039h26.676V18.398ZM50.087 80.894V69.409l-.048.013-12.294-3.32-.786-8.804H25.878l1.547 17.332 22.612 6.278.05-.014Z" fill="#EBEBEB"/><path d="m63.642 51.779-1.281 14.316-12.312 3.323v11.484l22.63-6.271.166-1.865 2.594-29.061.27-2.964L77.7 18.398H50.05v11.039h15.555L64.599 40.74H50.05v11.038h13.593Z" fill="#fff"/></svg>