<svg width="100" height="100" fill="none" xmlns="http://www.w3.org/2000/svg"><g clip-path="url(#a)"><path d="m26.878 27.058-6.425-6.425v46.335l.09 2.172c0 .995.181 2.172.543 3.348l50.86 17.919 12.67-5.611-57.738-57.738Z" fill="#00C4B3"/><path d="m84.615 84.796-12.67 5.61-50.769-17.918c.996 3.71 3.077 7.874 5.43 10.227l16.561 16.47 36.923.09 4.525-14.479Z" fill="#22D3C5"/><path d="M20.634 20.633.905 50.497c-1.629 1.72-.814 5.34 1.81 8.055l11.403 11.493 7.149 2.534c-.271-1.177-.543-2.353-.543-3.349l-.09-2.172V20.633Z" fill="#0075C9"/><path d="M72.308 21.176a25.594 25.594 0 0 0-3.349-.543l-2.262-.09H20.453l64.162 64.163 5.611-12.67-17.918-50.86Z" fill="#0075C9"/><path d="M82.534 26.606c-2.353-2.353-6.425-4.525-10.226-5.43l17.918 50.86-5.61 12.67L98.37 80.27V42.534L82.534 26.606Z" fill="#00A8E1"/><path d="M69.774 14.117 58.28 2.715C55.656.09 52.036-.725 50.226.905L20.362 20.633h46.244l2.263.09c.995 0 2.172.182 3.348.544l-2.443-7.15Z" fill="#00C4B3"/></g><defs><clipPath id="a"><path fill="#fff" d="M0 0h100v100H0z"/></clipPath></defs></svg>