<svg width="100" height="100" fill="none" xmlns="http://www.w3.org/2000/svg"><path d="M99.014 41.089c-.271-.216-2.803-2.127-8.142-2.127-1.41.006-2.817.127-4.207.361-1.034-7.083-6.89-10.536-7.153-10.691l-1.433-.827-.943 1.36a19.22 19.22 0 0 0-2.55 5.96c-.955 4.043-.374 7.841 1.68 11.088-2.48 1.382-6.459 1.722-7.264 1.752H3.131a3.13 3.13 0 0 0-3.127 3.113A47.4 47.4 0 0 0 2.89 68.005c2.27 5.95 5.645 10.334 10.037 13.017 4.922 3.014 12.918 4.736 21.982 4.736a65.615 65.615 0 0 0 12.207-1.107 51.031 51.031 0 0 0 15.932-5.787 43.797 43.797 0 0 0 10.872-8.9c5.22-5.908 8.328-12.487 10.64-18.334h.922c5.714 0 9.227-2.287 11.165-4.203a12.186 12.186 0 0 0 2.945-4.362l.409-1.197-.986-.78Z" fill="#2496ED"/><path d="M9.236 46.036h8.827a.77.77 0 0 0 .771-.77v-7.863a.77.77 0 0 0-.766-.775H9.236a.77.77 0 0 0-.77.77v7.867c0 .426.345.771.77.771ZM21.4 46.036h8.828a.77.77 0 0 0 .77-.77v-7.863a.77.77 0 0 0-.766-.775H21.4a.775.775 0 0 0-.775.775v7.862c.003.427.349.771.775.771ZM33.75 46.036h8.827a.77.77 0 0 0 .77-.77v-7.863a.77.77 0 0 0-.766-.775h-8.832a.77.77 0 0 0-.77.77v7.867c0 .426.345.771.77.771ZM45.953 46.036h8.827a.775.775 0 0 0 .775-.77v-7.863a.775.775 0 0 0-.775-.775h-8.827a.77.77 0 0 0-.771.77v7.867c0 .426.345.771.77.771ZM21.4 34.725h8.828a.775.775 0 0 0 .77-.775v-7.863a.77.77 0 0 0-.77-.77H21.4a.775.775 0 0 0-.775.77v7.863a.78.78 0 0 0 .775.775ZM33.75 34.725h8.827a.775.775 0 0 0 .77-.775v-7.863a.77.77 0 0 0-.77-.77H33.75a.77.77 0 0 0-.771.77v7.863c0 .426.344.772.77.775ZM45.953 34.725h8.827a.78.78 0 0 0 .775-.775v-7.863a.775.775 0 0 0-.775-.77h-8.827a.77.77 0 0 0-.771.77v7.863c0 .426.344.772.77.775ZM45.953 23.409h8.827a.775.775 0 0 0 .775-.77V14.77a.775.775 0 0 0-.775-.77h-8.827a.77.77 0 0 0-.771.77v7.867c0 .426.345.77.77.77ZM58.263 46.036h8.827a.775.775 0 0 0 .775-.77v-7.863a.775.775 0 0 0-.775-.775h-8.827a.77.77 0 0 0-.77.77v7.867c0 .426.345.771.77.771Z" fill="#2496ED"/></svg>