<svg width="105" height="50" fill="none" xmlns="http://www.w3.org/2000/svg"><path d="M34.739 25c0 4.268.018 6.018.036 3.893.035-2.143.035-5.643 0-7.768-.018-2.143-.036-.393-.036 3.875Z" fill="#fff" fill-opacity=".25" stroke="#fff" stroke-opacity=".25" stroke-width=".927"/><path d="M32.739 13.696c1.16.036 3 .036 4.108 0 1.107-.017.16-.053-2.108-.053-2.25 0-3.161.036-2 .053Z" fill="#fff" fill-opacity=".23" stroke="#fff" stroke-opacity=".23" stroke-width=".927"/><path d="M62.37 13.41a11.805 11.805 0 0 0-6.645 3.394c-1.357 1.375-2.16 2.642-2.822 4.482-.428 1.178-.482 1.553-.482 3.714 0 2.16.054 2.536.482 3.714.661 1.857 1.483 3.125 2.84 4.482 4.626 4.625 11.788 4.643 16.414.018 1.304-1.321 2.161-2.643 2.822-4.428.59-1.607.75-4.75.322-6.465-.375-1.517-1.322-3.41-2.34-4.696-2.393-3.018-6.805-4.768-10.591-4.214Zm4.858 4.411c2.84 1.34 4.572 4.036 4.572 7.215 0 3.053-1.768 5.821-4.572 7.143-1.393.642-3.555.857-5.09.5-4.34-1.018-6.913-5.375-5.788-9.733.572-2.142 2.054-4 3.983-4.982 1.34-.678 2.054-.821 3.983-.75 1.483.036 1.876.125 2.912.607ZM74.479 15.357v1.607h3.019c2.929 0 3.072-.018 3.893-.464.732-.393 1.036-.446 2.018-.393.858.036 1.322.16 1.733.464.518.375.732.393 3.697.393h3.144V13.75H74.478v1.607ZM30.72 25.018v11.09l5.323-.072c5.948-.09 6.68-.215 9.234-1.536 1.679-.857 3.733-2.91 4.519-4.518.303-.66.571-1.25.571-1.34 0-.088-.571-.124-1.25-.106-.964.053-1.429-.018-1.947-.268l-.678-.34-.322.786c-.429 1.054-1.911 2.536-3.126 3.125-1.5.732-3.161 1.018-6.019 1.018h-2.554V16.911l2.822.107c3.144.107 4.322.303 5.751.982 1.126.536 2.733 2.071 3.055 2.946l.214.59.821-.429c.661-.321 1.036-.41 1.947-.357.661.036 1.108-.018 1.108-.125 0-.375-1.34-2.446-2.09-3.232-.947-.964-2.626-2.09-3.876-2.554-2.054-.768-3.411-.91-8.59-.91H30.72v11.089ZM18.575 17.16c-2.107.376-4.036 1.626-5.18 3.411-.964 1.483-1.321 2.929-1.214 5 .107 2.197.59 3.393 1.875 4.786 2.09 2.268 5.305 3.09 8.663 2.232l.464-.125-.518-.464c-.303-.268-.643-.804-.768-1.196l-.25-.715-1.322-.018c-.893-.017-1.59-.142-2.125-.375-1.393-.625-2.483-2.017-2.483-3.178v-.447h11.61l-.107-1.482c-.143-2.018-.536-3.357-1.34-4.607-1.429-2.196-4.376-3.321-7.305-2.821Zm3 2.769c.983.392 1.626 1.107 1.912 2.107.5 1.66.804 1.535-3.751 1.535h-4.019v-.446c0-1.196 1.233-2.714 2.572-3.196.983-.34 2.465-.358 3.287 0ZM84.302 23.321c-.75.25-1.464.233-2.446-.035l-.411-.107V36.07h3.751v-6.517c0-3.59-.018-6.518-.036-6.5-.036.017-.41.142-.858.267Z" fill="#fff" stroke="#fff" stroke-width=".927"/><path d="M81.356 29.554c0 3.625.017 5.089.035 3.25.036-1.858.036-4.822 0-6.608-.018-1.785-.035-.285-.035 3.358Z" fill="#fff" fill-opacity=".99" stroke="#fff" stroke-opacity=".99" stroke-width=".927"/><path d="M32.739 36.375c1.143.036 3.036.036 4.197 0 1.143-.018.197-.054-2.108-.054-2.304 0-3.25.036-2.09.054Z" fill="#fff" fill-opacity=".21" stroke="#fff" stroke-opacity=".21" stroke-width=".927"/><path d="M35.864 32.804c.608.035 1.572.035 2.144 0 .553-.036.053-.054-1.126-.054-1.178 0-1.643.018-1.018.054Z" fill="#fff" fill-opacity=".65" stroke="#fff" stroke-opacity=".65" stroke-width=".927"/><path d="M78.82 13.696c2.428.036 6.393.036 8.84 0 2.43-.017.429-.035-4.43-.035-4.857 0-6.858.018-4.41.035Z" fill="#fff" fill-opacity=".27" stroke="#fff" stroke-opacity=".27" stroke-width=".927"/><path d="M32.739 13.875c1.16.036 3 .036 4.108 0 1.107-.018.16-.054-2.108-.054-2.25 0-3.161.036-2 .054Z" fill="#fff" fill-opacity=".88" stroke="#fff" stroke-opacity=".88" stroke-width=".927"/><path d="M32.739 36.196c1.143.036 3.036.036 4.197 0 1.143-.017.197-.053-2.108-.053-2.304 0-3.25.036-2.09.053Z" fill="#fff" fill-opacity=".82" stroke="#fff" stroke-opacity=".82" stroke-width=".927"/><path d="M18.718 26.375c1.59.036 4.197.036 5.805 0 1.59-.018.286-.054-2.912-.054-3.197 0-4.5.036-2.893.054Z" fill="#fff" fill-opacity=".02" stroke="#fff" stroke-opacity=".02" stroke-width=".927"/><path d="M74.193 15.357c0 .929.018 1.322.054.84a13.41 13.41 0 0 0 0-1.697c-.036-.464-.054-.071-.054.857Z" fill="#fff" fill-opacity=".04" stroke="#fff" stroke-opacity=".04" stroke-width=".927"/><path d="M74.372 15.357c0 .929.018 1.322.054.84.035-.465.035-1.215 0-1.697-.036-.464-.054-.071-.054.857Z" fill="#fff" fill-opacity=".73" stroke="#fff" stroke-opacity=".73" stroke-width=".927"/><path d="M92.054 15.357c0 .929.018 1.322.053.84a13.41 13.41 0 0 0 0-1.697c-.035-.464-.053-.071-.053.857Z" fill="#fff" fill-opacity=".24" stroke="#fff" stroke-opacity=".24" stroke-width=".927"/><path d="M92.233 15.357c0 .929.017 1.322.053.84a13.41 13.41 0 0 0 0-1.697c-.035-.464-.053-.071-.053.857Z" fill="#fff" fill-opacity=".02" stroke="#fff" stroke-opacity=".02" stroke-width=".927"/><path d="M30.631 25c0 6.143.018 8.643.036 5.571.035-3.053.035-8.089 0-11.16-.018-3.054-.036-.554-.036 5.589Z" fill="#fff" fill-opacity=".29" stroke="#fff" stroke-opacity=".29" stroke-width=".927"/><path d="M18.718 26.196c1.59.036 4.197.036 5.805 0 1.59-.017.286-.053-2.912-.053-3.197 0-4.5.036-2.893.053Z" fill="#fff" fill-opacity=".5" stroke="#fff" stroke-opacity=".5" stroke-width=".927"/><path d="M75.944 17.268a48.26 48.26 0 0 0 3.215 0c.91-.018.214-.054-1.554-.054-1.769 0-2.519.036-1.661.054ZM87.196 17.268a48.26 48.26 0 0 0 3.215 0c.91-.018.214-.054-1.554-.054s-2.519.036-1.661.054Z" fill="#fff" fill-opacity=".18" stroke="#fff" stroke-opacity=".18" stroke-width=".927"/><path d="M75.944 17.09a48.26 48.26 0 0 0 3.215 0c.91-.019.214-.054-1.554-.054-1.769 0-2.519.035-1.661.053ZM87.196 17.09a48.26 48.26 0 0 0 3.215 0c.91-.019.214-.054-1.554-.054s-2.519.035-1.661.053Z" fill="#fff" fill-opacity=".75" stroke="#fff" stroke-opacity=".75" stroke-width=".927"/><path d="M85.285 29.464c0 3.679.018 5.197.036 3.357.035-1.857.035-4.857 0-6.696-.018-1.857-.036-.34-.036 3.34Z" fill="#fff" fill-opacity=".18" stroke="#fff" stroke-opacity=".18" stroke-width=".927"/><path d="M35.686 17.09c.5.035 1.357.035 1.875 0 .5-.036.09-.054-.947-.054-1.035 0-1.446.018-.928.053Z" fill="#fff" fill-opacity=".96" stroke="#fff" stroke-opacity=".96" stroke-width=".927"/><path d="M35.686 17.268c.5.036 1.357.036 1.875 0 .5-.036.09-.054-.947-.054-1.035 0-1.446.018-.928.054Z" fill="#fff" fill-opacity=".58" stroke="#fff" stroke-opacity=".58" stroke-width=".927"/><path d="M34.56 25c0 4.268.018 6.018.036 3.893.036-2.143.036-5.643 0-7.768-.018-2.143-.035-.393-.035 3.875Z" fill="#fff" fill-opacity=".79" stroke="#fff" stroke-opacity=".79" stroke-width=".927"/><path d="M82.516 17.732c-.785.268-1.428 1.214-1.428 2.107 0 .893.84 1.893 1.714 2.054 1.233.232 2.572-.822 2.572-2 0-1.59-1.41-2.643-2.858-2.16ZM47.83 22.786c-1.124.607-1.41 2.268-.57 3.268.946 1.142 2.696 1 3.482-.286 1.143-1.84-1-4.036-2.911-2.982ZM62.905 23.107c-1 .554-1.393 1.982-.821 2.964 1.125 1.875 4 1.108 4-1.071 0-1.607-1.785-2.679-3.179-1.893ZM23.737 28.375c-.822.84-.643 2.16.375 2.75.786.464 1.393.375 2.072-.304.803-.803.821-1.625.09-2.41-.715-.768-1.787-.786-2.537-.036Z" fill="#fff" stroke="#fff" stroke-width=".927"/><path d="M81.177 29.464c0 3.679.018 5.197.036 3.357.035-1.857.035-4.857 0-6.696-.018-1.857-.036-.34-.036 3.34Z" fill="#fff" fill-opacity=".76" stroke="#fff" stroke-opacity=".76" stroke-width=".927"/><path d="M17.736 23.518c1.053.036 2.768.036 3.84 0 1.053-.018.178-.054-1.93-.054-2.107 0-2.982.036-1.91.054Z" fill="#fff" fill-opacity=".47" stroke="#fff" stroke-opacity=".47" stroke-width=".927"/></svg>