<svg width="100" height="100" fill="none" xmlns="http://www.w3.org/2000/svg"><path d="m61.405 36.118-10 9.312-9.284-18.733 4.796-10.771c1.212-2.149 3.194-2.177 4.407 0l10.081 20.192Z" fill="#FFA000"/><path d="M51.409 45.426 14 80.22l28.126-53.523 9.283 18.729Z" fill="#F57F17"/><path d="M72.371 21.877c1.792-1.707 3.636-1.131 4.103 1.293l9.725 56.58-32.257 19.365c-1.13.632-4.13.88-4.13.88s-2.729-.333-3.774-.909L14 80.22l58.371-58.343Z" fill="#FFCA28"/><path d="M42.126 26.697 14 80.22 26.535 1.989c.47-2.424 1.844-2.672 3.084-.523l12.507 25.231Z" fill="#FFA000"/></svg>