<svg width="100" height="100" fill="none" xmlns="http://www.w3.org/2000/svg"><path d="M98.114 45.545 54.454 1.886a6.44 6.44 0 0 0-9.108 0l-9.066 9.067 11.5 11.5a7.645 7.645 0 0 1 7.869 1.834 7.657 7.657 0 0 1 1.817 7.916L68.55 43.288c2.682-.924 5.776-.326 7.918 1.819a7.66 7.66 0 0 1 0 10.836 7.662 7.662 0 0 1-12.508-8.334L53.623 37.272v27.202c.749.37 1.433.86 2.026 1.449a7.663 7.663 0 0 1 0 10.839 7.66 7.66 0 0 1-10.836 0 7.663 7.663 0 0 1 2.508-12.51V36.795a7.569 7.569 0 0 1-2.508-1.673 7.66 7.66 0 0 1-1.651-8.377L31.824 15.407 1.887 45.343a6.442 6.442 0 0 0 0 9.11l43.661 43.66a6.441 6.441 0 0 0 9.108 0l43.458-43.457a6.444 6.444 0 0 0 0-9.111Z" fill="#DE4C36"/></svg>