<svg width="100" height="100" fill="none" xmlns="http://www.w3.org/2000/svg"><path d="M89.878 49.236A9.308 9.308 0 0 0 79.59 39.98L92.376 2.274h-54.33l12.767 37.673a9.308 9.308 0 0 0-3.392 18.16c-1.985 3.438-4.483 6.535-7.32 9.21-3.855 3.639-8.269 6.397-13.042 8.097-5.683-2.92-8.367-9.413-5.946-15.105.274-.643.553-1.295.82-1.944a9.308 9.308 0 0 0-2.123-18.37 9.308 9.308 0 0 0-5.342 16.929c-2.304 5.245-5.69 10.735-6.745 17.097-1.265 7.625-.005 15.72 6.59 20.29 15.36 10.645 32.031-6.599 49.61-10.934 6.37-1.57 13.363-1.318 18.976-4.568 4.215-2.441 6.994-6.487 7.782-11.03.78-4.486-.356-8.954-2.968-12.576a9.269 9.269 0 0 0 2.165-5.967Z" fill="#99425B"/><path d="M88.442 67.39c-.685 3.944-3.12 7.388-6.682 9.452-3.32 1.923-7.3 2.497-11.512 3.104-2.257.325-4.59.662-6.87 1.224-6.027 1.486-11.866 4.386-17.511 7.19-11.3 5.613-21.057 10.46-30.258 4.083-6.74-4.671-6.429-13.314-5.644-18.05.728-4.388 2.695-8.428 4.598-12.336.324-.664.645-1.33.964-1.996a11.5 11.5 0 0 0 2.992.75c-1.937 6.392 1.109 13.341 7.5 16.625l.876.45.926-.33c5.054-1.8 9.71-4.688 13.84-8.585a43.164 43.164 0 0 0 6.853-8.283c.574.086 1.153.13 1.733.13 5.867 0 10.725-4.386 11.477-10.051 2.402-.088 4.953-.089 7.368 0 .751 5.665 5.61 10.051 11.477 10.051 2.454 0 4.729-.769 6.604-2.075 1.301 2.664 1.787 5.662 1.269 8.648ZM19.81 42.27a7.043 7.043 0 0 1 7.034 7.035 6.99 6.99 0 0 1-1.11 3.786 7.036 7.036 0 0 1-8.383 2.804 7.075 7.075 0 0 1-3.651-3.11 6.988 6.988 0 0 1-.925-3.48 7.043 7.043 0 0 1 7.035-7.035Zm23.402 6.968c0-3.525 2.605-6.451 5.99-6.957a7.02 7.02 0 0 1 6.595 2.646 6.99 6.99 0 0 1 1.29 5.944 7.051 7.051 0 0 1-6.84 5.401 6.992 6.992 0 0 1-3.813-1.127 7.035 7.035 0 0 1-3.222-5.907Zm29.36-8.366a11.595 11.595 0 0 0-3.186 5.356 107.939 107.939 0 0 0-7.957 0 11.605 11.605 0 0 0-3.489-5.635l7.28-14.72 7.352 15ZM41.217 4.548h47.987L77.87 37.976c-.488.117-.967.265-1.435.444L65.238 15.58 54.01 38.284a11.51 11.51 0 0 0-1.497-.404L41.217 4.548Zm46.387 44.689a7.018 7.018 0 0 1-3.01 5.765 6.994 6.994 0 0 1-4.025 1.27c-3.248 0-5.988-2.214-6.793-5.211a7.019 7.019 0 0 1 .304-4.538c.18-.428.404-.836.665-1.22a7.028 7.028 0 0 1 6.483-3.069c3.571.333 6.376 3.346 6.376 7.003Zm4.547 0c0-5.654-4.074-10.372-9.44-11.38L95.547 0H34.875l12.856 37.934c-5.18 1.153-9.065 5.78-9.065 11.303 0 4.146 2.191 7.787 5.475 9.834a38.812 38.812 0 0 1-5.599 6.593c-3.404 3.211-7.196 5.647-11.285 7.25-4.118-2.588-5.859-7.466-4.051-11.716l.142-.333.265-.625c4.524-1.578 7.779-5.883 7.779-10.937 0-6.386-5.196-11.581-11.581-11.581-6.386 0-11.582 5.195-11.582 11.581 0 3.224 1.325 6.143 3.457 8.244a195.4 195.4 0 0 1-1.211 2.52c-1.95 4.004-4.16 8.542-4.995 13.582-1.66 10.01 1.017 18.011 7.539 22.53 3.957 2.743 7.975 3.821 12.02 3.821 7.613 0 15.316-3.825 22.85-7.567 5.426-2.695 11.036-5.482 16.578-6.849 2.062-.508 4.184-.814 6.43-1.138 4.455-.643 9.061-1.307 13.141-3.67 4.73-2.74 7.968-7.335 8.883-12.607.786-4.527-.16-9.06-2.466-12.905a11.511 11.511 0 0 0 1.696-6.027Z" fill="#fff"/></svg>