<svg width="100" height="100" fill="none" xmlns="http://www.w3.org/2000/svg"><path d="m73.597 61.907 2.89-7.305h8.34L80.87 43.521 85.819 31 100 68.65H89.542l-2.423-6.743H73.597Z" fill="#fff"/><path d="m64.676 68.651 15.18-37.65H69.792l-10.384 24.33-7.384-24.33h-7.736l-7.929 24.33-5.591-11.087-5.06 15.59 5.137 8.817h9.904l7.165-21.819 6.831 21.82h9.931Z" fill="#5A0FC8"/><path d="M9.553 55.726h6.199c1.878 0 3.55-.21 5.016-.629l1.604-4.938 4.48-13.804a11.01 11.01 0 0 0-1.17-1.535c-2.3-2.546-5.666-3.82-10.097-3.82H0v37.65h9.553V55.727Zm8.205-16.063c.899.904 1.348 2.114 1.348 3.63 0 1.528-.395 2.74-1.185 3.635-.867.995-2.462 1.492-4.786 1.492H9.553V38.306h3.608c2.166 0 3.699.452 4.597 1.357Z" fill="#fff"/></svg>