<svg width="100" height="100" fill="none" xmlns="http://www.w3.org/2000/svg"><path fill-rule="evenodd" clip-rule="evenodd" d="m61.71 60.658-1.917 3.331a3.237 3.237 0 0 1-2.806 1.622H42.293a3.238 3.238 0 0 1-2.805-1.622l-1.919-3.33h24.142Zm5.37-9.324L63.7 57.207H35.582L32.2 51.334h34.88Zm-3.257-9.118 3.263 5.667H32.194l3.264-5.667h28.365Zm-6.836-8.62c1.158 0 2.228.62 2.806 1.622l2.042 3.547h-24.39l2.043-3.547a3.238 3.238 0 0 1 2.805-1.621h14.694Z" fill="#00435B"/><path d="M20.907 32.051c-1.627-7.893-1.977-13.947-.925-18.343.626-2.614 1.77-4.747 3.51-6.286 1.836-1.624 4.159-2.421 6.768-2.421 4.304 0 8.829 1.962 13.664 5.691 1.972 1.521 4.02 3.354 6.145 5.5a4.6 4.6 0 0 1 .574-.612c6.01-5.356 11.07-8.684 15.398-9.967 2.574-.763 4.99-.836 7.19-.095 2.323.781 4.173 2.397 5.479 4.66 2.154 3.735 2.723 8.642 1.92 14.702-.328 2.47-.888 5.16-1.679 8.075.299.036.598.102.894.2 7.626 2.527 13.025 5.245 16.294 8.35 1.946 1.848 3.216 3.906 3.675 6.183.485 2.403.012 4.814-1.292 7.075-2.15 3.73-6.105 6.671-11.74 9-2.261.936-4.82 1.783-7.68 2.545.13.295.231.608.3.936 1.627 7.893 1.976 13.947.924 18.343-.626 2.614-1.77 4.747-3.51 6.286-1.836 1.624-4.158 2.422-6.767 2.422-4.304 0-8.83-1.963-13.665-5.692-1.993-1.537-4.063-3.393-6.213-5.569a4.582 4.582 0 0 1-.814.954c-6.01 5.356-11.07 8.684-15.398 9.967-2.574.763-4.99.835-7.19.095-2.322-.781-4.173-2.397-5.479-4.66-2.154-3.735-2.723-8.642-1.92-14.702.34-2.56.929-5.355 1.766-8.392a4.583 4.583 0 0 1-.98-.21C12.53 63.558 7.13 60.84 3.86 57.735 1.915 55.887.645 53.83.186 51.552c-.485-2.403-.012-4.814 1.292-7.075 2.15-3.73 6.105-6.671 11.74-9 2.329-.964 4.973-1.834 7.937-2.613a4.612 4.612 0 0 1-.248-.814Z" fill="#002B3B"/><path fill-rule="evenodd" clip-rule="evenodd" d="M40.492 29.537c3.953-.315 8.027-.454 12.223-.417a1.439 1.439 0 0 0 1.13-2.346C44.294 15.016 36.43 9.136 30.252 9.136c-6.377 0-8.196 7.03-5.458 21.09.15.77.89 1.279 1.664 1.142 4.875-.864 9.553-1.475 14.033-1.831ZM62.682 31.472a140.344 140.344 0 0 1 6.573 10.45 1.439 1.439 0 0 0 2.594-.2c5.402-14.17 6.537-23.941 3.406-29.315-3.232-5.546-10.272-3.628-21.123 5.753a1.439 1.439 0 0 0-.157 2.017c3.224 3.811 6.126 7.576 8.707 11.295ZM72.263 51.267c-1.708 3.591-3.629 7.2-5.761 10.827a1.439 1.439 0 0 0 1.474 2.15c14.887-2.449 23.877-6.355 26.969-11.721 3.194-5.542-1.942-10.621-15.408-15.238a1.439 1.439 0 0 0-1.819.869c-1.699 4.67-3.517 9.04-5.455 13.113ZM60.048 69.851c-3.953.315-8.027.454-12.223.417a1.439 1.439 0 0 0-1.13 2.346C56.245 84.372 64.11 90.25 70.286 90.25c6.378 0 8.197-7.03 5.458-21.09a1.439 1.439 0 0 0-1.663-1.14c-4.876.863-9.554 1.474-14.033 1.83ZM37.318 68.096a140.324 140.324 0 0 1-6.573-10.451 1.439 1.439 0 0 0-2.594.2c-5.402 14.17-6.537 23.942-3.406 29.316 3.232 5.546 10.272 3.628 21.123-5.753a1.439 1.439 0 0 0 .157-2.018c-3.224-3.81-6.126-7.575-8.707-11.294ZM27.737 47.76c1.709-3.59 3.629-7.199 5.761-10.826a1.439 1.439 0 0 0-1.474-2.149C17.137 37.233 8.147 41.14 5.055 46.505c-3.194 5.542 1.942 10.621 15.408 15.238a1.439 1.439 0 0 0 1.819-.869c1.699-4.67 3.517-9.04 5.455-13.113Z" fill="#FF4154"/><path fill-rule="evenodd" clip-rule="evenodd" d="M43.474 33.777H55.81c1.804 0 3.47.964 4.368 2.529l6.193 10.791a5.036 5.036 0 0 1 0 5.014l-6.193 10.791a5.036 5.036 0 0 1-4.368 2.53H43.475a5.036 5.036 0 0 1-4.368-2.53l-6.194-10.791a5.035 5.035 0 0 1 0-5.014l6.194-10.791a5.036 5.036 0 0 1 4.367-2.53Zm10.455 3.257c1.805 0 3.471.965 4.369 2.531l4.319 7.535a5.036 5.036 0 0 1 0 5.008l-4.319 7.535a5.036 5.036 0 0 1-4.37 2.531h-8.574a5.036 5.036 0 0 1-4.369-2.531l-4.318-7.535a5.036 5.036 0 0 1 0-5.008l4.318-7.535a5.036 5.036 0 0 1 4.37-2.531h8.574Zm-2.026 3.562H47.38a5.036 5.036 0 0 0-4.366 2.527l-2.282 3.972a5.036 5.036 0 0 0 0 5.018l2.282 3.972a5.036 5.036 0 0 0 4.366 2.527h4.523a5.036 5.036 0 0 0 4.366-2.527l2.282-3.972a5.036 5.036 0 0 0 0-5.018l-2.282-3.972a5.036 5.036 0 0 0-4.366-2.527Zm-1.951 3.41c1.801 0 3.466.962 4.364 2.524l.324.562a5.036 5.036 0 0 1 0 5.024l-.324.562a5.036 5.036 0 0 1-4.364 2.524h-.62a5.036 5.036 0 0 1-4.365-2.524l-.324-.562a5.036 5.036 0 0 1 0-5.024l.324-.562a5.036 5.036 0 0 1 4.365-2.524h.62Zm-.31 3.359a2.241 2.241 0 0 0-1.941 3.359 2.24 2.24 0 0 0 3.882-2.24 2.24 2.24 0 0 0-1.94-1.12Zm-18.167 2.239h4.031-4.031Z" fill="#FFD94C"/></svg>