<svg width="100" height="100" fill="none" xmlns="http://www.w3.org/2000/svg"><path d="M50.192 0 6 25v50l44.192 25.001 44.191-25V25L50.192 0Z" fill="#fff"/><path d="m13.892 73.275 34.842 19.709v-15.35L27.025 65.692l-13.133 7.583Zm-2.383-2.158V29.9l12.75 7.359V63.75l-12.75 7.367Zm75.124 2.158L51.792 92.984v-15.35L73.5 65.692l13.133 7.583Zm2.384-2.158V29.9l-12.75 7.359V63.75l12.75 7.367Zm-1.492-43.883L51.792 7.017V21.86L74.683 34.45l.175.1 12.667-7.316Zm-74.525 0L48.733 7.017V21.86L25.843 34.45l-.175.1L13 27.234Z" fill="#8ED6FB"/><path d="m51.792 74.142 21.416-11.775V39.034L51.792 51.4v22.741Zm-3.059 0L27.317 62.367V39.034L48.733 51.4v22.741Zm23.025-37.808-21.5-11.825-21.5 11.825 21.5 12.416 21.5-12.416Z" fill="#1C78C0"/></svg>