<svg width="100" height="100" fill="none" xmlns="http://www.w3.org/2000/svg"><path d="M93.22 31.493 77.406 14.984H23.34L6.746 31.493l41.709 50.222L93.22 31.493Z" fill="#142641"/><path fill-rule="evenodd" clip-rule="evenodd" d="m56.14 12.837-2.932 1.693-.713-1.236-1.707.985-.834-1.442-2.592 1.497-.864-1.497-.307.177-.945-1.635-.437.253-.804-1.392-38.5 22.227 1.24 2.15.437-.253.805 1.392.307-.177.945 1.636.377-.219.6 1.04.145-.083.57.986 1.24 2.15 45.21-26.102-1.241-2.15Zm16.336 43.652H55.658v1.664H34.403l54.313-31.358-6.04-10.462-1.212.7-.833-1.442-13.584 7.844.832 1.44L22.6 51.017l6.041 10.463.242-.14v3.221h4.41v5.312h31.43V64.56h4.733v-6.268h3.02V56.49Z" fill="#274D82"/><path fill-rule="evenodd" clip-rule="evenodd" d="M79.533 10h-58.25L0 31.173l48.318 58.189 3.855-4.325L100 31.37 79.533 10Zm-2.127 4.985L93.22 31.493 48.455 81.716 6.745 31.493 23.34 14.985h54.066Z" fill="#3068B7"/></svg>