<svg width="221" height="27" viewBox="0 0 221 27" fill="none" xmlns="http://www.w3.org/2000/svg">
	<path d="M20.5 26H15.1035L5.38281 9.40625V26H0.337891V0.792969H5.73438L15.4551 17.4043V0.792969H20.5V26ZM45.0742 15.9277C45.0742 17.3223 44.8105 18.6348 44.2832 19.8652C43.7559 21.084 43.0352 22.1504 42.1211 23.0645C41.207 23.9668 40.1348 24.6816 38.9043 25.209C37.6855 25.7363 36.3789 26 34.9844 26C33.5898 26 32.2773 25.7363 31.0469 25.209C29.8281 24.6816 28.7617 23.9668 27.8477 23.0645C26.9453 22.1504 26.2305 21.084 25.7031 19.8652C25.1758 18.6348 24.9121 17.3223 24.9121 15.9277V0.792969H29.9395V15.9277C29.9395 16.6191 30.0684 17.2695 30.3262 17.8789C30.5957 18.4883 30.959 19.0215 31.416 19.4785C31.873 19.9355 32.4062 20.2988 33.0156 20.5684C33.6367 20.8262 34.293 20.9551 34.9844 20.9551C35.6758 20.9551 36.3262 20.8262 36.9355 20.5684C37.5566 20.2988 38.0957 19.9355 38.5527 19.4785C39.0098 19.0215 39.3672 18.4883 39.625 17.8789C39.8945 17.2695 40.0293 16.6191 40.0293 15.9277V0.792969H45.0742V15.9277ZM54.4961 26H49.4512V0.792969H54.4961V13.3965L63.8828 0.792969H69.6133L61.6504 11.4277L69.6133 26H63.8828L58.3457 15.8047L54.4961 20.9551V26ZM91.832 15.9277C91.832 17.3223 91.5684 18.6348 91.041 19.8652C90.5137 21.084 89.793 22.1504 88.8789 23.0645C87.9648 23.9668 86.8926 24.6816 85.6621 25.209C84.4434 25.7363 83.1367 26 81.7422 26C80.3477 26 79.0352 25.7363 77.8047 25.209C76.5859 24.6816 75.5195 23.9668 74.6055 23.0645C73.7031 22.1504 72.9883 21.084 72.4609 19.8652C71.9336 18.6348 71.6699 17.3223 71.6699 15.9277V0.792969H76.6973V15.9277C76.6973 16.6191 76.8262 17.2695 77.084 17.8789C77.3535 18.4883 77.7168 19.0215 78.1738 19.4785C78.6309 19.9355 79.1641 20.2988 79.7734 20.5684C80.3945 20.8262 81.0508 20.9551 81.7422 20.9551C82.4336 20.9551 83.084 20.8262 83.6934 20.5684C84.3145 20.2988 84.8535 19.9355 85.3105 19.4785C85.7676 19.0215 86.125 18.4883 86.3828 17.8789C86.6523 17.2695 86.7871 16.6191 86.7871 15.9277V0.792969H91.832V15.9277Z" fill="#ECECEC"/>
	<path d="M94.7324 8.35156C94.7324 7.30859 94.9316 6.33008 95.3301 5.41602C95.7285 4.50195 96.2676 3.70508 96.9473 3.02539C97.6387 2.33398 98.4414 1.78906 99.3555 1.39062C100.27 0.992187 101.248 0.792969 102.291 0.792969H113.857V5.83789H102.291C101.939 5.83789 101.611 5.90234 101.307 6.03125C101.002 6.16016 100.732 6.3418 100.498 6.57617C100.275 6.79883 100.1 7.0625 99.9707 7.36719C99.8418 7.67188 99.7773 8 99.7773 8.35156C99.7773 8.70312 99.8418 9.03711 99.9707 9.35352C100.1 9.6582 100.275 9.92773 100.498 10.1621C100.732 10.3848 101.002 10.5605 101.307 10.6895C101.611 10.8184 101.939 10.8828 102.291 10.8828H107.336C108.379 10.8828 109.357 11.082 110.271 11.4805C111.197 11.8672 112 12.4062 112.68 13.0977C113.371 13.7773 113.91 14.5801 114.297 15.5059C114.695 16.4199 114.895 17.3984 114.895 18.4414C114.895 19.4844 114.695 20.4629 114.297 21.377C113.91 22.291 113.371 23.0938 112.68 23.7852C112 24.4648 111.197 25.0039 110.271 25.4023C109.357 25.8008 108.379 26 107.336 26H96.1387V20.9551H107.336C107.688 20.9551 108.016 20.8906 108.32 20.7617C108.625 20.6328 108.889 20.457 109.111 20.2344C109.346 20 109.527 19.7305 109.656 19.4258C109.785 19.1211 109.85 18.793 109.85 18.4414C109.85 18.0898 109.785 17.7617 109.656 17.457C109.527 17.1523 109.346 16.8887 109.111 16.666C108.889 16.4316 108.625 16.25 108.32 16.1211C108.016 15.9922 107.688 15.9277 107.336 15.9277H102.291C101.248 15.9277 100.27 15.7285 99.3555 15.3301C98.4414 14.9316 97.6387 14.3926 96.9473 13.7129C96.2676 13.0215 95.7285 12.2188 95.3301 11.3047C94.9316 10.3789 94.7324 9.39453 94.7324 8.35156ZM128.447 26H123.42V5.83789H115.844V0.792969H136.006V5.83789H128.447V26ZM158.559 15.9277C158.559 17.3223 158.295 18.6348 157.768 19.8652C157.24 21.084 156.52 22.1504 155.605 23.0645C154.691 23.9668 153.619 24.6816 152.389 25.209C151.17 25.7363 149.863 26 148.469 26C147.074 26 145.762 25.7363 144.531 25.209C143.312 24.6816 142.246 23.9668 141.332 23.0645C140.43 22.1504 139.715 21.084 139.188 19.8652C138.66 18.6348 138.396 17.3223 138.396 15.9277V0.792969H143.424V15.9277C143.424 16.6191 143.553 17.2695 143.811 17.8789C144.08 18.4883 144.443 19.0215 144.9 19.4785C145.357 19.9355 145.891 20.2988 146.5 20.5684C147.121 20.8262 147.777 20.9551 148.469 20.9551C149.16 20.9551 149.811 20.8262 150.42 20.5684C151.041 20.2988 151.58 19.9355 152.037 19.4785C152.494 19.0215 152.852 18.4883 153.109 17.8789C153.379 17.2695 153.514 16.6191 153.514 15.9277V0.792969H158.559V15.9277ZM183.133 13.3965C183.133 14.5566 182.98 15.6758 182.676 16.7539C182.383 17.8203 181.961 18.8223 181.41 19.7598C180.859 20.6855 180.203 21.5352 179.441 22.3086C178.68 23.0703 177.83 23.7266 176.893 24.2773C175.955 24.8281 174.947 25.2559 173.869 25.5605C172.803 25.8535 171.689 26 170.529 26H162.936V0.792969H170.529C171.689 0.792969 172.803 0.945313 173.869 1.25C174.947 1.54297 175.955 1.96484 176.893 2.51562C177.83 3.06641 178.68 3.72852 179.441 4.50195C180.203 5.26367 180.859 6.11328 181.41 7.05078C181.961 7.97656 182.383 8.97852 182.676 10.0566C182.98 11.123 183.133 12.2363 183.133 13.3965ZM178.088 13.3965C178.088 12.3535 177.889 11.375 177.49 10.4609C177.104 9.54688 176.564 8.75 175.873 8.07031C175.193 7.37891 174.391 6.83398 173.465 6.43555C172.551 6.03711 171.572 5.83789 170.529 5.83789H168.016V20.9551H170.529C171.572 20.9551 172.551 20.7617 173.465 20.375C174.391 19.9766 175.193 19.4375 175.873 18.7578C176.564 18.0664 177.104 17.2637 177.49 16.3496C177.889 15.4238 178.088 14.4395 178.088 13.3965ZM220.926 13.502C220.926 14.6973 220.768 15.8516 220.451 16.9648C220.146 18.0664 219.713 19.1035 219.15 20.0762C218.588 21.0371 217.908 21.916 217.111 22.7129C216.314 23.5098 215.436 24.1953 214.475 24.7695C213.514 25.332 212.477 25.7656 211.363 26.0703C210.25 26.3867 209.096 26.5449 207.9 26.5449C206.705 26.5449 205.551 26.3867 204.438 26.0703C203.336 25.7656 202.299 25.332 201.326 24.7695C200.365 24.1953 199.486 23.5098 198.689 22.7129C197.893 21.916 197.207 21.0371 196.633 20.0762C196.07 19.1035 195.631 18.0664 195.314 16.9648C195.01 15.8516 194.857 14.6973 194.857 13.502C194.857 12.3066 195.01 11.1523 195.314 10.0391C195.631 8.92578 196.07 7.88867 196.633 6.92773C197.207 5.9668 197.893 5.08789 198.689 4.29102C199.486 3.49414 200.365 2.81445 201.326 2.25195C202.299 1.68945 203.336 1.25586 204.438 0.951172C205.551 0.634766 206.705 0.476562 207.9 0.476562C209.096 0.476562 210.25 0.634766 211.363 0.951172C212.477 1.25586 213.514 1.68945 214.475 2.25195C215.436 2.81445 216.314 3.49414 217.111 4.29102C217.908 5.08789 218.588 5.9668 219.15 6.92773C219.713 7.88867 220.146 8.92578 220.451 10.0391C220.768 11.1523 220.926 12.3066 220.926 13.502ZM215.916 13.502C215.916 12.4004 215.705 11.3633 215.283 10.3906C214.861 9.40625 214.287 8.55664 213.561 7.8418C212.846 7.11523 211.996 6.54102 211.012 6.11914C210.039 5.69727 209.002 5.48633 207.9 5.48633C206.787 5.48633 205.744 5.69727 204.771 6.11914C203.799 6.54102 202.949 7.11523 202.223 7.8418C201.496 8.55664 200.922 9.40625 200.5 10.3906C200.078 11.3633 199.867 12.4004 199.867 13.502C199.867 14.6035 200.078 15.6406 200.5 16.6133C200.922 17.5742 201.496 18.418 202.223 19.1445C202.949 19.8711 203.799 20.4453 204.771 20.8672C205.744 21.2891 206.787 21.5 207.9 21.5C209.002 21.5 210.039 21.2891 211.012 20.8672C211.996 20.4453 212.846 19.8711 213.561 19.1445C214.287 18.418 214.861 17.5742 215.283 16.6133C215.705 15.6406 215.916 14.6035 215.916 13.502Z" fill="#239580"/>
	<path d="M191.535 26H186.49V0.792969H191.535V26Z" fill="#239580"/>
</svg>
